# Blender v3.6.5 OBJ File: 'levels.v01.blend'
# www.blender.org
mtllib finish.mtl
o finish_Cube.002
v 3.133714 0.281534 -11.051287
v 3.133716 0.281534 9.889872
v -3.133716 0.281534 -11.051287
v -3.133714 0.281534 9.889872
v 0.000001 0.281534 11.631993
v -0.000001 0.281534 -11.051287
vt 0.750000 0.500000
vt 0.875000 0.500000
vt 0.875000 0.750000
vt 0.750000 0.750000
vt 0.625000 0.500000
vt 0.625000 0.750000
vn 0.0000 1.0000 0.0000
usemtl None
s off
f 5/1/1 2/2/1 1/3/1 6/4/1
f 4/5/1 5/1/1 6/4/1 3/6/1
